<svg width="563" height="593" viewBox="0 0 563 593" fill="none" xmlns="http://www.w3.org/2000/svg">
<path fill-rule="evenodd" clip-rule="evenodd" d="M295 12.182V25.131L299.5 29.696C301.975 32.207 304 34.625 304 35.071C304 35.516 305.688 36.834 307.75 38C311.521 40.131 318.978 47.346 319.026 48.91C319.04 49.371 321.255 51.244 323.949 53.07C326.643 54.897 331.305 58.947 334.31 62.07C337.314 65.194 341.286 68.97 343.136 70.462C349.136 75.301 353 79.113 353 80.193C353 80.774 353.49 81.249 354.089 81.249C354.688 81.249 356.938 82.917 359.089 84.955L363 88.661V340.497V592.333L370.75 592.041L378.5 591.749L378.752 332.576L379.004 73.403L374.752 69.337C372.413 67.1 369.938 65.266 369.25 65.26C368.563 65.254 368 64.626 368 63.864C368 63.102 366.988 61.787 365.75 60.941C364.512 60.094 361.475 57.565 359 55.32C356.525 53.074 353.712 50.984 352.75 50.676C351.788 50.367 351 49.639 351 49.058C351 47.691 342.916 40.581 337.341 37.046C334.953 35.532 333 33.867 333 33.346C333 32.099 324.795 24.274 323.473 24.26C322.213 24.247 316 18.673 316 17.555C316 16.69 309.518 11.249 308.487 11.249C308.146 11.249 306.209 9.67799 304.183 7.75799C302.157 5.83699 300.163 4.26199 299.75 4.25799C299.337 4.25299 299 3.68198 299 2.98998C299 2.29698 298.1 1.16798 297 0.480982C295.039 -0.744018 295 -0.518013 295 12.182ZM483.207 32.956L483.5 40.749L488.947 41.058C491.942 41.228 495.449 41.102 496.74 40.778C498.967 40.219 499.072 39.822 498.793 32.969L498.5 25.749L490.707 25.456L482.914 25.163L483.207 32.956ZM291.111 44.423C288.697 45.618 286.522 47.305 286.278 48.172C285.819 49.803 279.644 54.249 277.838 54.249C277.276 54.249 275.784 55.036 274.523 55.999C273.263 56.962 271.193 58.424 269.924 59.249C268.655 60.074 266.637 61.649 265.441 62.749C262.717 65.254 260.143 66.976 257.25 68.227C256.012 68.762 255 69.608 255 70.108C255 70.607 254.212 71.28 253.25 71.603C252.288 71.927 250.6 72.756 249.5 73.447C248.4 74.138 246.041 75.613 244.257 76.726C242.473 77.839 240.992 79.199 240.965 79.749C240.911 80.834 234.454 85.249 232.92 85.249C231.742 85.249 222.035 91.87 219.951 94.095C218.293 95.866 215.434 97.851 213 98.922C212.175 99.284 209.925 100.792 208 102.272C206.075 103.751 202.797 105.76 200.715 106.736C198.634 107.712 196.508 109.3 195.991 110.265C195.075 111.978 191.617 114.35 183.5 118.836L179.5 121.046L179.248 336.648L178.995 552.249H145.498H112V561.249V570.249H204.5H297V306.249C297 161.049 296.663 42.249 296.25 42.25C295.837 42.25 293.525 43.228 291.111 44.423ZM440 70.778V84.307L453.25 84.028L466.5 83.749L466.779 70.499L467.058 57.249H453.529H440V70.778ZM487.475 63.499C487.165 64.737 487.044 69.799 487.206 74.749L487.5 83.749L495.5 84.054C499.9 84.222 504.962 84.089 506.75 83.759L510 83.158V72.811C510 64.297 509.72 62.355 508.418 61.856C507.548 61.522 502.607 61.249 497.437 61.249C488.524 61.249 488.009 61.365 487.475 63.499ZM413 143.575C413 172.046 413.159 175.096 414.671 175.676C417.423 176.732 428.877 186.649 428.941 188.03C428.973 188.735 429.788 189.606 430.75 189.966C431.712 190.325 434.726 192.786 437.447 195.434C440.169 198.082 442.726 200.249 443.13 200.249C443.534 200.249 444.151 201.149 444.5 202.249C444.849 203.349 445.629 204.249 446.232 204.249C446.836 204.249 450.089 206.836 453.46 209.999C472.821 228.161 477.451 232.249 478.66 232.249C479.397 232.249 480 232.788 480 233.447C480 235.029 492.046 246.249 493.744 246.249C494.47 246.249 495.387 247.037 495.782 247.999C496.53 249.824 507.214 260.249 508.335 260.249C509.486 260.249 513 263.665 513 264.783C513 265.383 514.331 266.857 515.957 268.059L518.915 270.246L515.516 279.497C509.756 295.173 509.531 295.72 508.42 296.749C507.143 297.932 502 309.48 502 311.166C502 311.807 500.65 315.22 499 318.749C497.35 322.278 496 326.084 496 327.207C496 328.33 495.198 330.051 494.217 331.032C492.365 332.884 489 339.327 489 341.021C489 341.554 487.699 345.086 486.108 348.87C484.517 352.653 482.163 358.562 480.875 361.999C479.588 365.437 477.985 368.249 477.313 368.249C476.641 368.249 475.787 369.937 475.416 371.999C475.045 374.062 474.149 376.874 473.425 378.249C470.818 383.201 464 400.901 464 402.719C464 403.506 463.438 404.509 462.75 404.949C461.148 405.974 458.721 411.038 455.898 419.249C454.668 422.824 453.347 426.199 452.961 426.749C452.576 427.299 451.709 429.549 451.034 431.749C449.042 438.249 447.583 441.249 446.414 441.249C445.81 441.249 444.775 443.162 444.112 445.499C443.45 447.836 442.503 450.649 442.008 451.749C438.413 459.746 436.995 463.314 436.966 464.444C436.947 465.162 436.063 467.549 435 469.749C433.937 471.949 433.053 474.312 433.034 474.999C433.015 475.687 432.361 476.249 431.579 476.249C430.798 476.249 429.846 477.672 429.464 479.413C429.082 481.154 427.471 485.471 425.884 489.007C424.298 492.542 423 496.193 423 497.12C423 498.046 422.397 499.692 421.659 500.776C420.922 501.861 419.459 505.215 418.409 508.23C417.359 511.244 415.712 514.506 414.75 515.48C413.172 517.075 413 519.852 413 543.749V570.249H487.517H562.033L561.767 543.999L561.5 517.749L521.664 517.487L481.828 517.226L482.527 512.987C482.912 510.656 483.564 508.299 483.977 507.749C484.391 507.199 485.98 502.699 487.509 497.749C489.039 492.799 490.675 488.321 491.145 487.799C491.615 487.276 492 486.087 492 485.156C492 484.225 492.577 483.242 493.281 482.971C493.986 482.701 495.169 480.065 495.91 477.114C496.651 474.163 497.626 471.281 498.076 470.71C498.527 470.138 499.344 467.888 499.893 465.71C501.948 457.556 507.255 442.713 508.462 441.743C509.151 441.19 511.596 434.89 513.895 427.743C516.194 420.596 518.695 413.399 519.454 411.749C520.213 410.099 521.144 407.076 521.523 405.031C521.901 402.985 523.067 400.324 524.114 399.117C525.161 397.91 526.51 395.084 527.112 392.836C527.715 390.588 528.81 387.174 529.547 385.249C530.284 383.324 531.85 378.599 533.027 374.749C534.204 370.899 535.805 366.271 536.584 364.465C537.363 362.659 538 360.521 538 359.715C538 358.909 538.675 358.249 539.5 358.249C540.382 358.249 541.009 357.323 541.022 355.999C541.034 354.761 541.934 351.787 543.022 349.39C544.11 346.992 545 344.301 545 343.409C545 342.02 547.028 336.181 550.092 328.749C550.545 327.649 551.397 324.857 551.985 322.544C552.572 320.231 553.603 317.739 554.276 317.005C557.636 313.344 558.291 310.335 559.111 294.802C559.578 285.973 560.459 273.205 561.071 266.428C562.052 255.548 561.996 253.902 560.591 252.349C559.716 251.383 559 250.161 559 249.636C559 249.11 557.763 247.937 556.25 247.029C552.641 244.862 542.517 235.04 541.701 232.913C541.35 231.998 540.613 231.249 540.064 231.249C538.716 231.249 527 219.896 527 218.59C527 218.021 526.133 217.148 525.073 216.652C522.482 215.438 510 203.511 510 202.25C510 201.699 509.496 201.249 508.879 201.249C507.329 201.249 495 189.15 495 187.629C495 186.951 494.352 186.25 493.559 186.072C491.819 185.682 479 173.422 479 172.149C479 171.654 478.564 171.249 478.031 171.249C477.498 171.249 474.01 168.331 470.281 164.764C466.551 161.198 462.938 158.273 462.25 158.264C461.563 158.256 461 157.732 461 157.1C461 156.468 457.962 153.102 454.25 149.62C450.538 146.138 446.825 142.601 446 141.76C445.175 140.919 442.925 138.626 441 136.663C428.444 123.864 417.176 113.432 415.25 112.824L413 112.114V143.575ZM52.016 129.306C50.099 130.375 47.963 131.249 47.268 131.249C46.574 131.249 43.192 132.535 39.753 134.107C36.314 135.68 31.402 137.727 28.838 138.656C26.274 139.586 23.943 140.955 23.658 141.697C23.373 142.44 21.421 143.597 19.32 144.268C17.219 144.939 12.656 146.784 9.18 148.368C5.704 149.953 2.217 151.249 1.43 151.249C0.195 151.249 0 179.404 0 358.249V565.249H26.5H53V374.478V183.707L57.25 181.587C59.588 180.42 63.701 178.454 66.39 177.217C69.08 175.981 72.023 174.226 72.932 173.317C73.84 172.409 80.967 168.535 88.769 164.707C96.571 160.88 102.965 157.293 102.977 156.735C102.99 156.177 104.912 154.861 107.25 153.81C110.612 152.298 111.082 151.809 109.5 151.471C108.4 151.235 106.825 150.467 106 149.764C105.175 149.061 103.375 148.147 102 147.733C100.625 147.318 98.612 146.365 97.527 145.614C96.443 144.863 94.868 144.248 94.027 144.247C93.187 144.245 90.957 142.926 89.072 141.315C87.187 139.703 83.587 137.614 81.072 136.671C78.557 135.729 72.85 133.224 68.389 131.104C59.277 126.774 57.006 126.524 52.016 129.306Z" fill="white"/>
</svg>
