<svg width="23" height="11" viewBox="0 0 23 11" fill="none" xmlns="http://www.w3.org/2000/svg">
<path d="M20.436 3.12L19.836 1.62H18H17.76L17.856 1.392L18.516 0L18.804 0.132L18.24 1.296H22.32V1.62H20.172L20.724 3L20.436 3.12ZM11.964 4.212H15.684V4.536H13.98V9.192L15.66 8.868L15.72 9.168L12.072 9.9L12.012 9.6L13.668 9.264V4.536H11.964V4.212ZM15.948 10.368L16.596 8.484C16.644 8.356 16.684 8.232 16.716 8.112C16.748 7.984 16.776 7.86 16.8 7.74C16.816 7.604 16.828 7.472 16.836 7.344C16.852 7.216 16.86 7.084 16.86 6.948V5.04C16.86 4.88 16.888 4.736 16.944 4.608C17.008 4.472 17.092 4.352 17.196 4.248C17.3 4.144 17.416 4.064 17.544 4.008C17.68 3.944 17.828 3.912 17.988 3.912H20.04C20.2 3.912 20.348 3.944 20.484 4.008C20.62 4.064 20.74 4.144 20.844 4.248C20.948 4.352 21.028 4.472 21.084 4.608C21.148 4.736 21.18 4.88 21.18 5.04V9.336C21.18 9.464 21.2 9.572 21.24 9.66C21.256 9.708 21.276 9.752 21.3 9.792C21.332 9.832 21.368 9.872 21.408 9.912C21.48 10 21.568 10.06 21.672 10.092C21.76 10.132 21.868 10.152 21.996 10.152H22.476V10.464H21.996C21.828 10.464 21.684 10.44 21.564 10.392C21.436 10.336 21.312 10.252 21.192 10.14C21.08 10.02 20.996 9.896 20.94 9.768C20.884 9.632 20.856 9.488 20.856 9.336V5.04C20.856 4.816 20.776 4.624 20.616 4.464C20.544 4.392 20.456 4.336 20.352 4.296C20.256 4.248 20.152 4.224 20.04 4.224H17.988C17.876 4.224 17.768 4.248 17.664 4.296C17.568 4.336 17.484 4.392 17.412 4.464C17.34 4.536 17.28 4.624 17.232 4.728C17.192 4.824 17.172 4.928 17.172 5.04V6.948C17.172 7.236 17.148 7.516 17.1 7.788C17.068 8.052 17 8.324 16.896 8.604L16.248 10.464L15.948 10.368ZM19.212 8.748L18.432 5.748L18.744 5.664L19.512 8.676L19.212 8.748ZM13.176 0.132L12.624 1.296H16.704V1.62H14.544L15.096 3L14.808 3.12L14.22 1.62H12.384H12.132L12.24 1.392L12.888 0L13.176 0.132Z" fill="white"/>
<path d="M1.356 7.2V1.5C1.356 1.348 1.384 1.204 1.44 1.068C1.504 0.932002 1.588 0.812002 1.692 0.708002C1.796 0.604002 1.916 0.524002 2.052 0.468002C2.188 0.404002 2.332 0.372002 2.484 0.372002H7.812C7.972 0.372002 8.12 0.404002 8.256 0.468002C8.392 0.524002 8.512 0.604002 8.616 0.708002C8.832 0.924002 8.94 1.188 8.94 1.5V7.2H8.628V1.5C8.628 1.276 8.548 1.084 8.388 0.924002C8.228 0.764002 8.036 0.684002 7.812 0.684002H2.484C2.268 0.684002 2.08 0.764002 1.92 0.924002C1.76 1.084 1.68 1.276 1.68 1.5V7.2H1.356ZM5.304 2.088V5.244C5.304 5.572 5.244 5.86 5.124 6.108C4.996 6.372 4.816 6.604 4.584 6.804L0.192 10.488L0 10.236L4.368 6.564C4.576 6.396 4.732 6.2 4.836 5.976C4.94 5.76 4.992 5.516 4.992 5.244V2.088H5.304ZM10.476 10.38H6.936C6.624 10.38 6.36 10.272 6.144 10.056C6.04 9.952 5.956 9.832 5.892 9.696C5.836 9.56 5.808 9.412 5.808 9.252V6.372H6.12V9.252C6.12 9.364 6.14 9.472 6.18 9.576C6.228 9.672 6.288 9.756 6.36 9.828C6.52 9.988 6.712 10.068 6.936 10.068H10.476V10.38Z" fill="white"/>
</svg>
