<svg t="1776169032680" class="icon" viewBox="0 0 1024 1024" version="1.1" xmlns="http://www.w3.org/2000/svg" p-id="2468" width="200" height="200"><path d="M806.4 108.8H480c-204.8 0-371.2 166.4-371.2 371.2v62.72c0 204.8 166.4 371.2 371.2 371.2h62.72c204.8 0 371.2-166.4 371.2-371.2V217.6c1.28-60.16-47.36-108.8-107.52-108.8zM435.2 528.64c-1.28 25.6-21.76 47.36-47.36 47.36s-47.36-20.48-47.36-47.36v-92.16c0-25.6 20.48-47.36 47.36-47.36S435.2 409.6 435.2 436.48v92.16z m247.04 0c0 25.6-20.48 47.36-47.36 47.36-25.6 0-47.36-20.48-47.36-47.36v-92.16c0-25.6 20.48-47.36 47.36-47.36 25.6 0 47.36 20.48 47.36 47.36v92.16z" fill="#8d37fe" p-id="2469"></path></svg>