<svg t="1776169192889" class="icon" viewBox="0 0 1097 1024" version="1.1" xmlns="http://www.w3.org/2000/svg" p-id="4471" width="200" height="200"><path d="M357.083429 15.945143a54.930286 54.930286 0 0 1 0 77.019428L190.390857 262.144h530.944a384.950857 384.950857 0 0 1 375.881143 380.928A384.950857 384.950857 0 0 1 721.334857 1024H484.059429a54.418286 54.418286 0 0 1 0-108.836571h237.348571a272.164571 272.164571 0 1 0 0-544.256H175.908571l181.248 183.954285a55.003429 55.003429 0 0 1-1.828571 75.337143 53.101714 53.101714 0 0 1-73.801143 1.974857L15.725714 362.496a54.930286 54.930286 0 0 1 0-76.946286L281.526857 15.945143a53.101714 53.101714 0 0 1 75.849143 0z" fill="#515151" p-id="4472"></path></svg>