<svg t="1776168915437" class="icon" viewBox="0 0 1024 1024" version="1.1" xmlns="http://www.w3.org/2000/svg" p-id="1472" width="200" height="200"><path d="M806.4 110.08H480c-204.8 0-371.2 166.4-371.2 371.2v62.72c0 204.8 166.4 371.2 371.2 371.2h62.72c204.8 0 371.2-166.4 371.2-371.2V218.88c1.28-60.16-49.92-108.8-107.52-108.8z m19.2 433.92c0 154.88-126.72 281.6-281.6 281.6h-62.72c-154.88 0-281.6-126.72-281.6-281.6v-62.72c0-154.88 126.72-281.6 281.6-281.6H806.4c10.24 0 19.2 8.96 19.2 19.2v325.12z" fill="#999999" p-id="1473"></path><path d="M636.16 387.84C609.28 387.84 588.8 409.6 588.8 435.2v92.16c0 26.88 21.76 47.36 47.36 47.36 26.88 0 47.36-20.48 47.36-47.36V435.2c-1.28-26.88-21.76-47.36-47.36-47.36zM386.56 387.84c-26.88 0-47.36 21.76-47.36 47.36v92.16c0 26.88 21.76 47.36 47.36 47.36s46.08-20.48 47.36-47.36V435.2c1.28-26.88-20.48-47.36-47.36-47.36z" fill="#999999" p-id="1474"></path></svg>