<svg t="1776168740902" class="icon" viewBox="0 0 1024 1024" version="1.1" xmlns="http://www.w3.org/2000/svg" p-id="1160" width="200" height="200"><path d="M481.792 287.232c-173.738667 0-314.709333 140.970667-314.709333 314.709333 0 173.738667 140.8 314.709333 314.709333 314.709334 173.738667 0 314.709333-140.8 314.709333-314.709334 0-173.909333-140.970667-314.88-314.709333-314.88z m-74.922667 269.653333c-33.109333 0-59.904-26.794667-59.904-59.904s26.794667-59.904 59.904-59.904 59.904 26.794667 59.904 59.904-26.794667 59.904-59.904 59.904z m209.749334 0c-33.109333 0-59.904-26.794667-59.904-59.904s26.794667-59.904 59.904-59.904 59.904 26.794667 59.904 59.904-26.794667 59.904-59.904 59.904z" fill="#CCCCCC" p-id="1161"></path><path d="M94.549333 695.125333l0.341334-1.024a247.296 247.296 0 0 1 15.872-35.498666 349.9008 349.9008 0 0 1 15.018666-25.429334c-12.288-39.253333-18.602667-80.213333-18.432-121.344C107.349333 288.426667 288.426667 107.178667 512 107.178667c127.317333 0 240.810667 58.709333 315.050667 150.698666 47.786667 4.949333 83.114667 22.016 100.352 51.882667 20.138667 34.986667 12.8 82.432-16.384 135.168 3.584 21.674667 5.461333 44.032 5.461333 66.901333 0 223.402667-181.077333 404.650667-404.650667 404.650667-88.405333 0-170.154667-28.330667-236.714666-76.458667-13.482667 1.536-27.136 2.56-40.618667 2.730667h-4.949333c-64 0.341333-111.786667-17.066667-132.778667-53.418667a85.265067 85.265067 0 0 1-10.922667-34.133333c-0.853333-9.216-0.682667-18.432 0.682667-27.477333 0.853333-5.802667 1.877333-11.605333 3.413333-17.408 1.194667-4.949333 2.730667-9.728 4.266667-14.506667l-0.341333 1.024 0.682666-1.877333z m745.813334-155.648l-0.341334 0.341334c-9.557333 10.24-19.456 20.309333-29.525333 30.037333-4.949333 4.778667-10.069333 9.557333-15.36 14.336l3.413333-3.072c-11.093333 10.24-22.528 20.309333-34.133333 29.866667-4.437333 3.754667-9.045333 7.509333-13.482667 11.093333a1122.747733 1122.747733 0 0 1-100.181333 71.338667c-13.653333 8.704-27.477333 17.066667-41.472 25.088-76.8 44.373333-153.429333 77.312-223.744 98.133333 39.936 16.554667 82.773333 25.088 126.122667 24.917333 172.885333 0 314.538667-132.949333 328.533333-302.250666zM165.034667 720.554667l-0.341334 1.194666c-0.512 1.365333-0.853333 2.730667-1.194666 4.096-4.266667 14.677333-3.754667 22.698667-1.877334 26.112 2.048 3.584 8.704 7.850667 23.552 11.605334 3.584 0.853333 7.509333 1.706667 11.605334 2.218666-11.605333-14.336-22.186667-29.525333-31.573334-45.226666z m346.794666-538.282667c-182.101333 0-329.728 147.626667-329.728 329.728 0 99.498667 44.202667 188.928 114.005334 249.344l4.608-0.853333c80.725333-15.189333 176.981333-52.394667 271.189333-106.837334 9.557333-5.461333 18.944-11.093333 28.16-16.725333l8.874667-5.461333a1086.976 1086.976 0 0 0 77.653333-53.930667l6.997333-5.461333c7.168-5.632 14.165333-11.264 21.162667-16.896l-5.290667 4.266666c2.56-2.048 5.12-4.266667 7.68-6.314666l-2.389333 2.048 6.314667-5.290667-3.925334 3.242667 7.338667-6.314667-3.413333 2.901333c2.56-2.048 4.949333-4.266667 7.338666-6.314666l-3.925333 3.413333c2.389333-2.048 4.778667-4.096 6.997333-6.144l-3.072 2.730667 6.144-5.290667-2.901333 2.56c5.802667-5.12 11.605333-10.24 17.237333-15.530667l-3.072 2.901334 6.826667-6.314667-3.754667 3.584c5.802667-5.290667 11.434667-10.752 16.896-16.213333l-2.730666 2.730666c2.218667-2.048 4.266667-4.266667 6.485333-6.314666l-3.754667 3.754666 6.144-6.144-2.389333 2.389334c1.706667-1.706667 3.242667-3.413333 4.949333-4.949334l-2.56 2.56c4.949333-4.949333 9.898667-10.069333 14.677334-15.36l-2.048 2.218667c1.706667-1.877333 3.584-3.754667 5.290666-5.632l-3.072 3.413333c2.730667-2.901333 5.290667-5.802667 7.850667-8.704l-4.778667 5.290667c1.877333-2.048 3.754667-4.266667 5.632-6.314667l-0.853333 1.024c1.365333-1.536 2.730667-3.072 3.925333-4.608l-3.072 3.584c1.877333-2.218667 3.925333-4.437333 5.802667-6.656l-2.730667 3.072c2.218667-2.56 4.437333-5.12 6.485334-7.68l-3.754667 4.437334c1.706667-2.048 3.413333-3.925333 4.949333-5.973334l-1.194666 1.536 3.925333-4.778666-2.730667 3.242666c1.877333-2.218667 3.754667-4.437333 5.461334-6.656l-2.730667 3.413334c2.389333-2.901333 4.608-5.632 6.826667-8.533334 23.552-30.208 38.912-57.856 45.226666-79.872 4.266667-14.677333 3.754667-22.698667 1.877334-26.282666-2.048-3.413333-8.704-7.850667-23.552-11.605334-13.312-3.242667-30.037333-4.778667-49.664-4.266666-17.578667-23.381333-34.304-43.008-50.346667-58.538667a328.106667 328.106667 0 0 0-227.157333-90.624z" fill="#AAAAAA" p-id="1162"></path></svg>