<svg width="11" height="22" viewBox="0 0 11 22" fill="none" xmlns="http://www.w3.org/2000/svg">
<path d="M8.692 14.576L8.092 13.076H6.256H6.016L6.112 12.848L6.772 11.456L7.06 11.588L6.496 12.752H10.576V13.076H8.428L8.98 14.456L8.692 14.576ZM0.220001 15.668H3.94V15.992H2.236V20.648L3.916 20.324L3.976 20.624L0.328001 21.356L0.268001 21.056L1.924 20.72V15.992H0.220001V15.668ZM4.204 21.824L4.852 19.94C4.9 19.812 4.94 19.688 4.972 19.568C5.004 19.44 5.032 19.316 5.056 19.196C5.072 19.06 5.084 18.928 5.092 18.8C5.108 18.672 5.116 18.54 5.116 18.404V16.496C5.116 16.336 5.144 16.192 5.2 16.064C5.264 15.928 5.348 15.808 5.452 15.704C5.556 15.6 5.672 15.52 5.8 15.464C5.936 15.4 6.084 15.368 6.244 15.368H8.296C8.456 15.368 8.604 15.4 8.74 15.464C8.876 15.52 8.996 15.6 9.1 15.704C9.204 15.808 9.284 15.928 9.34 16.064C9.404 16.192 9.436 16.336 9.436 16.496V20.792C9.436 20.92 9.456 21.028 9.496 21.116C9.512 21.164 9.532 21.208 9.556 21.248C9.588 21.288 9.624 21.328 9.664 21.368C9.736 21.456 9.824 21.516 9.928 21.548C10.016 21.588 10.124 21.608 10.252 21.608H10.732V21.92H10.252C10.084 21.92 9.94 21.896 9.82 21.848C9.692 21.792 9.568 21.708 9.448 21.596C9.336 21.476 9.252 21.352 9.196 21.224C9.14 21.088 9.112 20.944 9.112 20.792V16.496C9.112 16.272 9.032 16.08 8.872 15.92C8.8 15.848 8.712 15.792 8.608 15.752C8.512 15.704 8.408 15.68 8.296 15.68H6.244C6.132 15.68 6.024 15.704 5.92 15.752C5.824 15.792 5.74 15.848 5.668 15.92C5.596 15.992 5.536 16.08 5.488 16.184C5.448 16.28 5.428 16.384 5.428 16.496V18.404C5.428 18.692 5.404 18.972 5.356 19.244C5.324 19.508 5.256 19.78 5.152 20.06L4.504 21.92L4.204 21.824ZM7.468 20.204L6.688 17.204L7 17.12L7.768 20.132L7.468 20.204ZM1.432 11.588L0.880001 12.752H4.96V13.076H2.8L3.352 14.456L3.064 14.576L2.476 13.076H0.64H0.388L0.496001 12.848L1.144 11.456L1.432 11.588Z" fill="white"/>
<path d="M1.356 6.828V1.128C1.356 0.976 1.384 0.832 1.44 0.696C1.504 0.56 1.588 0.44 1.692 0.336C1.796 0.232 1.916 0.152 2.052 0.0960002C2.188 0.0320001 2.332 0 2.484 0H7.812C7.972 0 8.12 0.0320001 8.256 0.0960002C8.392 0.152 8.512 0.232 8.616 0.336C8.832 0.552 8.94 0.816 8.94 1.128V6.828H8.628V1.128C8.628 0.904 8.548 0.712 8.388 0.552C8.228 0.392 8.036 0.312 7.812 0.312H2.484C2.268 0.312 2.08 0.392 1.92 0.552C1.76 0.712 1.68 0.904 1.68 1.128V6.828H1.356ZM5.304 1.716V4.872C5.304 5.2 5.244 5.488 5.124 5.736C4.996 6 4.816 6.232 4.584 6.432L0.192 10.116L0 9.864L4.368 6.192C4.576 6.024 4.732 5.828 4.836 5.604C4.94 5.388 4.992 5.144 4.992 4.872V1.716H5.304ZM10.476 10.008H6.936C6.624 10.008 6.36 9.9 6.144 9.684C6.04 9.58 5.956 9.46 5.892 9.324C5.836 9.188 5.808 9.04 5.808 8.88V6H6.12V8.88C6.12 8.992 6.14 9.1 6.18 9.204C6.228 9.3 6.288 9.384 6.36 9.456C6.52 9.616 6.712 9.696 6.936 9.696H10.476V10.008Z" fill="white"/>
</svg>
